<svg xmlns="http://www.w3.org/2000/svg" width="805" height="600"><rect width="805" height="600" x="0" y="0" fill="#FFFFFF" id="background"/><g transform="translate(10,10)" id="visualization"><g><rect x="390" y="7.5" height="437.6047904191617" width="5" fill="black"><title>Mujer: 261</title></rect><rect x="0" y="5" height="276.6467065868263" width="5" fill="black"><title>Diseño con mención Visual y Medios: 165</title></rect><rect x="0" y="286.6467065868263" height="211.25748502994014" width="5" fill="black"><title>Diseño con mención Industrial y Servicios: 126</title></rect><rect x="780" y="0" height="130.77844311377248" width="5" fill="black"><title>Salud, Cuidado y Neurodiversidad: 78</title></rect><rect x="390" y="450.1047904191617" height="122.3952095808383" width="5" fill="black"><title>Hombre: 73</title></rect><rect x="780" y="135.77844311377248" height="120.71856287425152" width="5" fill="black"><title>Educación, Activismo y Género: 72</title></rect><rect x="780" y="261.497005988024" height="114.01197604790417" width="5" fill="black"><title>Ecología, Materialidad y Futuros: 68</title></rect><rect x="780" y="380.50898203592817" height="102.27544910179637" width="5" fill="black"><title>Territorio, Identidad y Memoria: 61</title></rect><rect x="780" y="487.78443113772454" height="92.21556886227546" width="5" fill="black"><title>Tecnología, Interacción y Medios: 55</title></rect><rect x="0" y="502.90419161676647" height="72.09580838323353" width="5" fill="black"><title>Diseño: 43</title></rect></g><g fill="none" stroke-opacity="1"><g style="mix-blend-mode: multiply;"><path d="M5,561.5868263473054C197.5,561.5868263473054,197.5,559.0868263473053,390,559.0868263473053" stroke="#fbf8b0" stroke-width="26.82634730538922"/><title>Diseño → Hombre: 16</title></g><g style="mix-blend-mode: multiply;"><path d="M5,482.814371257485C197.5,482.814371257485,197.5,530.5838323353294,390,530.5838323353294" stroke="#89cfa5" stroke-width="30.179640718562872"/><title>Diseño con mención Industrial y Servicios → Hombre: 18</title></g><g style="mix-blend-mode: multiply;"><path d="M5,248.95209580838323C197.5,248.95209580838323,197.5,482.7994011976048,390,482.7994011976048" stroke="#eb94b8" stroke-width="65.38922155688623"/><title>Diseño con mención Visual y Medios → Hombre: 39</title></g><g style="mix-blend-mode: multiply;"><path d="M5,525.5389221556886C197.5,525.5389221556886,197.5,422.4700598802395,390,422.4700598802395" stroke="#fbf8b0" stroke-width="45.26946107784431"/><title>Diseño → Mujer: 27</title></g><g style="mix-blend-mode: multiply;"><path d="M5,377.18562874251495C197.5,377.18562874251495,197.5,309.2964071856287,390,309.2964071856287" stroke="#89cfa5" stroke-width="181.07784431137725"/><title>Diseño con mención Industrial y Servicios → Mujer: 108</title></g><g style="mix-blend-mode: multiply;"><path d="M5,110.62874251497006C197.5,110.62874251497006,197.5,113.12874251497006,390,113.12874251497006" stroke="#eb94b8" stroke-width="211.2574850299401"/><title>Diseño con mención Visual y Medios → Mujer: 126</title></g><g style="mix-blend-mode: multiply;"><path d="M395,504.59580838323353C587.5,504.59580838323353,587.5,364.6107784431138,780,364.6107784431138" stroke="#1be2de" stroke-width="21.79640718562874"/><title>Hombre → Ecología, Materialidad y Futuros: 13</title></g><g style="mix-blend-mode: multiply;"><path d="M395,481.122754491018C587.5,481.122754491018,587.5,243.92215568862275,780,243.92215568862275" stroke="#1be2de" stroke-width="25.149700598802394"/><title>Hombre → Educación, Activismo y Género: 15</title></g><g style="mix-blend-mode: multiply;"><path d="M395,459.3263473053892C587.5,459.3263473053892,587.5,121.55688622754491,780,121.55688622754491" stroke="#1be2de" stroke-width="18.44311377245509"/><title>Hombre → Salud, Cuidado y Neurodiversidad: 11</title></g><g style="mix-blend-mode: multiply;"><path d="M395,556.5718562874251C587.5,556.5718562874251,587.5,564.0718562874251,780,564.0718562874251" stroke="#1be2de" stroke-width="31.8562874251497"/><title>Hombre → Tecnología, Interacción y Medios: 19</title></g><g style="mix-blend-mode: multiply;"><path d="M395,528.0688622754491C587.5,528.0688622754491,587.5,470.2095808383234,780,470.2095808383234" stroke="#1be2de" stroke-width="25.149700598802394"/><title>Hombre → Territorio, Identidad y Memoria: 15</title></g><g style="mix-blend-mode: multiply;"><path d="M395,261.51197604790417C587.5,261.51197604790417,587.5,307.6047904191617,780,307.6047904191617" stroke="#d8b9f5" stroke-width="92.21556886227545"/><title>Mujer → Ecología, Materialidad y Futuros: 55</title></g><g style="mix-blend-mode: multiply;"><path d="M395,167.6197604790419C587.5,167.6197604790419,587.5,183.56287425149702,780,183.56287425149702" stroke="#d8b9f5" stroke-width="95.56886227544909"/><title>Mujer → Educación, Activismo y Género: 57</title></g><g style="mix-blend-mode: multiply;"><path d="M395,63.66766467065868C587.5,63.66766467065868,587.5,56.16766467065868,780,56.16766467065868" stroke="#d8b9f5" stroke-width="112.33532934131736"/><title>Mujer → Salud, Cuidado y Neurodiversidad: 67</title></g><g style="mix-blend-mode: multiply;"><path d="M395,414.92514970059887C587.5,414.92514970059887,587.5,517.9640718562874,780,517.9640718562874" stroke="#d8b9f5" stroke-width="60.359281437125745"/><title>Mujer → Tecnología, Interacción y Medios: 36</title></g><g style="mix-blend-mode: multiply;"><path d="M395,346.18263473053895C587.5,346.18263473053895,587.5,419.0718562874252,780,419.0718562874252" stroke="#d8b9f5" stroke-width="77.12574850299401"/><title>Mujer → Territorio, Identidad y Memoria: 46</title></g></g><g><text x="399" y="226.30239520958085" text-anchor="start"><tspan alignment-baseline="middle" x="399" style="font-family: Arial, sans-serif; font-size: 10px; fill: black; font-weight: bold;">Mujer</tspan></text><text x="9" y="143.32335329341316" text-anchor="start"><tspan alignment-baseline="middle" x="9" style="font-family: Arial, sans-serif; font-size: 10px; fill: black; font-weight: bold;">Diseño con mención Visual y Medios</tspan></text><text x="9" y="392.2754491017964" text-anchor="start"><tspan alignment-baseline="middle" x="9" style="font-family: Arial, sans-serif; font-size: 10px; fill: black; font-weight: bold;">Diseño con mención Industrial y Servicios</tspan></text><text x="776" y="65.38922155688624" text-anchor="end"><tspan alignment-baseline="middle" x="776" style="font-family: Arial, sans-serif; font-size: 10px; fill: black; font-weight: bold;">Salud, Cuidado y Neurodiversidad</tspan></text><text x="399" y="511.3023952095808" text-anchor="start"><tspan alignment-baseline="middle" x="399" style="font-family: Arial, sans-serif; font-size: 10px; fill: black; font-weight: bold;">Hombre</tspan></text><text x="776" y="196.13772455089824" text-anchor="end"><tspan alignment-baseline="middle" x="776" style="font-family: Arial, sans-serif; font-size: 10px; fill: black; font-weight: bold;">Educación, Activismo y Género</tspan></text><text x="776" y="318.50299401197606" text-anchor="end"><tspan alignment-baseline="middle" x="776" style="font-family: Arial, sans-serif; font-size: 10px; fill: black; font-weight: bold;">Ecología, Materialidad y Futuros</tspan></text><text x="776" y="431.6467065868263" text-anchor="end"><tspan alignment-baseline="middle" x="776" style="font-family: Arial, sans-serif; font-size: 10px; fill: black; font-weight: bold;">Territorio, Identidad y Memoria</tspan></text><text x="776" y="533.8922155688623" text-anchor="end"><tspan alignment-baseline="middle" x="776" style="font-family: Arial, sans-serif; font-size: 10px; fill: black; font-weight: bold;">Tecnología, Interacción y Medios</tspan></text><text x="9" y="538.9520958083832" text-anchor="start"><tspan alignment-baseline="middle" x="9" style="font-family: Arial, sans-serif; font-size: 10px; fill: black; font-weight: bold;">Diseño</tspan></text></g><g><text x="392.5" y="3.5" text-anchor="middle" style="font-family: Arial, sans-serif; font-size: 12px; fill: rgb(123, 123, 123); font-weight: bold;">SEXO</text><text x="2.5" y="1" text-anchor="middle" style="font-family: Arial, sans-serif; font-size: 12px; fill: rgb(123, 123, 123); font-weight: bold;">TÍTULO PROFESIONAL</text><text x="782.5" y="-4" text-anchor="middle" style="font-family: Arial, sans-serif; font-size: 12px; fill: rgb(123, 123, 123); font-weight: bold;">TENDENCIA</text></g></g></svg>